<svg viewBox="0 0 32 32" fill="none" xmlns="http://www.w3.org/2000/svg" width="12" height="12" size="12"><path d="M15.7313 21.1023L15.7333 12.1294L7.11983 15.9092L15.7313 21.1023Z" fill="#90A9EB"></path><path d="M15.7799 12.1294L15.7779 21.1044L24.3929 15.9092L15.7799 12.1294Z" fill="#C6B4F0"></path><path d="M24.3841 15.8587L15.7779 1.71851L15.7799 12.083L24.3841 15.8587Z" fill="#C7F8F6"></path><path d="M15.7787 22.57L15.7779 29.4968L24.4002 17.6262L15.7787 22.57Z" fill="#C5B2F1"></path><path d="M15.7313 29.4921L15.7321 22.5685L7.11257 17.6262L15.7313 29.4921Z" fill="#EACEC6"></path><path d="M7.12875 15.8589L15.7333 12.0831L15.7313 1.72412L7.12875 15.8589Z" fill="#EACEC4"></path><path d="M15.7561 21.1668L15.773 21.1574L24.4517 15.9237L24.4694 15.9132L15.777 1.63018L15.7569 1.6001L15.7363 1.63018L7.0431 15.9132L15.7395 21.1577L15.7561 21.1672V21.1668ZM24.384 15.8588L15.7798 12.0831L15.7782 1.7186L24.384 15.8588ZM15.7798 12.1294L24.3929 15.9092L15.7782 21.1045L15.7798 12.1294ZM15.7315 21.1023L7.12006 15.9092L15.7335 12.1294L15.7315 21.1023ZM7.12892 15.8588L15.7315 1.72404L15.7335 12.0831L7.12892 15.8588Z" fill="#686DCC"></path><path d="M6.95647 17.4873L15.7408 29.5807L15.7565 29.6003L15.7726 29.5807L24.5565 17.4873L15.7565 22.5333L6.95647 17.4873ZM15.7315 29.4923L7.1128 17.6265L15.7323 22.5688L15.7315 29.4923ZM15.7786 22.5702L24.4001 17.6265L15.7782 29.497L15.779 22.5702H15.7786Z" fill="#686DCC"></path></svg>